# xmcd CD database file
#
# Track frame offsets:
#	150
#	21194
#	34104
#	52616
#	68341
#	77548
#	92498
#	107348
#	121008
#	133671
#	151655
#	171287
#	182345
#	195384
#
# Disc length: 2831 seconds
#
# Revision: 0
# Processed by: cddbd v1.5.2PL0 Copyright (c) Steve Scherf et al.
# Submitted via: CDex 1.77
#
DISCID=900b0d0e
DTITLE=Hot Nasho and himself orchestra - Lain down thinking
DYEAR=2016
DGENRE=Blues
TTITLE0=Keepin' On Dreaming
TTITLE1=Hand On Mine
TTITLE2=Daredevil Love
TTITLE3=Back To Mama
TTITLE4=The Manager (Urban Rag)
TTITLE5=Shake Like An Earthquake
TTITLE6=Winding Road
TTITLE7=Pretty Sinner Baby
TTITLE8=She Lied
TTITLE9=At Dawn (When The Sun Goes Up
TTITLE10=Business Traveler Man
TTITLE11=Yor Cat at My Dog
TTITLE12=Natural Hound Dog
TTITLE13=Hoodoo Roll
EXTD=YEAR: 2016
EXTT0=
EXTT1=
EXTT2=
EXTT3=
EXTT4=
EXTT5=
EXTT6=
EXTT7=
EXTT8=
EXTT9=
EXTT10=
EXTT11=
EXTT12=
EXTT13=
PLAYORDER=
